<svg width="42" height="41" viewBox="0 0 42 41" fill="none" xmlns="http://www.w3.org/2000/svg">
<path d="M5.75685 1.98614L8.03528 3.70426L9.89445 5.58963L11.6006 7.78026L14.3827 9.20936L17.8901 10.8139L22.7689 11.1954L26.2543 10.8139L28.7114 9.81027L32.2068 7.42232L35.8407 5.34585L38.2978 4.37683H40.2013L41.1703 4.89595L41.4125 5.89958L41.1703 8.32213L39.8206 12.1982L38.99 16.2819L38.0954 20.0578L37.5058 23.2711L38.0954 24.745V28.3636L36.785 31.7314L33.7121 34.9563L29.6895 37.1911L25.555 39.0979L20.9759 40.1572H17.8901L14.4818 39.0979L10.7972 37.578L7.34289 36.012L4.80972 33.9395L2.42022 31.7314L0.848765 29.3797L0.25 26.5702L0.526156 23.6225L1.26188 19.6155L2.00015 17.1284V15.3782L1.66489 11.6894L1.26188 9.20936L0.95188 3.44329L0.951744 0.932265L1.50988 0.374258L2.28482 0.157227L2.93582 0.529273L4.79584 1.21128L5.75685 1.98614Z" fill="#ECECEC"/>
<path d="M6.45375 20.6143L8.79971 20.0749L12.0219 18.7937L14.3209 17.5006L16.6916 16.1356L20.4992 15.6327L24.0687 16.5545L25.7392 17.8598L28.1192 20.0749L32.4788 22.0778L34.7805 23.5465L36.0879 25.1268V26.8824L35.1297 28.9125L32.4788 32.1924L28.1192 34.171L25.7392 36.4608L21.5606 38.3928H18.6106L15.652 37.4817L12.5418 35.4334L10.0167 32.8779L6.45373 31.0525L4.38823 28.9125L3.09521 25.1197L3.93181 22.5337L6.45375 20.6143Z" fill="#737373"/>
<path d="M5.75701 1.98614L8.03544 3.70426L9.89461 5.58963L11.6008 7.78026L14.3829 9.20936L26.2544 10.8139L28.7116 9.81027L32.207 7.42232L35.8408 5.34585L38.298 4.37683H40.2014L41.1704 4.89595L41.4127 5.89958L41.1704 8.32213L39.8207 12.1982L38.9901 16.2819L38.0956 20.0578L37.506 23.2711L36.4639 19.1044L34.9195 15.8752L31.6904 12.8567L26.2544 10.8139L14.3829 9.20936L9.15654 10.8139L5.48084 14.1962L3.30105 17.1284L1.26204 19.6155L2.00031 17.1284V15.3782L1.66505 11.6894L1.26204 9.20936L0.952041 3.44329L0.951904 0.932265L1.51004 0.374258L2.28498 0.157227L2.93598 0.529273L4.796 1.21128L5.75701 1.98614Z" fill="#737373"/>
<ellipse cx="27.1613" cy="25.6122" rx="3.04421" ry="1.84642" transform="rotate(-20 27.1613 25.6122)" fill="#7BB7E6"/>
<ellipse cx="27.3413" cy="25.4895" rx="1.41886" ry="0.725437" transform="rotate(-100 27.3413 25.4895)" fill="#292929"/>
<ellipse cx="11.8964" cy="24.5176" rx="3.04421" ry="1.84642" transform="rotate(-160 11.8964 24.5176)" fill="#7BB7E6"/>
<ellipse cx="11.8963" cy="24.3409" rx="1.41886" ry="0.725437" transform="rotate(-80 11.8963 24.3409)" fill="#292929"/>
</svg>
