<svg width="680" height="353" viewBox="0 0 680 353" fill="none" xmlns="http://www.w3.org/2000/svg">
<path d="M432.366 239.147L431.644 228.468M432.366 239.147L432.483 246.241M432.366 239.147L432.784 264.418M432.483 246.241L425.6 252.333L416.473 259.178L407.727 265.453L398.006 271.201L392.885 274.062M432.483 246.241L432.784 264.418M392.885 274.062L384.487 278.567L371.609 285.291L357.521 292.973L339.5 301.247L321.753 309.559L288.593 317.383L246.805 320.895L207.182 318.299L184.387 315.862L165.545 322.59L144.947 328.201L129.145 331.971L107.968 335.805L93.8164 338.694L86.5736 342.186L75.6092 345.324L63.0492 348.935L47.5914 350.03L38.5297 349.316L29.9017 346.591L24.4055 342.675L24.318 334.822L28.6954 330.397L33.6605 327.254L39.5837 325.983L47.0223 327.429L54.9369 326.445L61.086 321.655L71.3513 318.241L83.7806 312.799L97.2986 307.938L111.546 301.704M392.885 274.062L387.573 280.366L381.712 286.954L373.882 294.218L367 296.428L361.665 296.596L357.521 297.36L352.721 299.744L350.38 304.132L350.238 308.39L352.525 312.824L357.784 316.563L365.755 319.257L375.067 319.923L381.712 317.438L387.573 313.76L395.892 307.194L403.133 299.904L413.762 288.368L422.053 277.812L427.038 271.201L432.784 264.418M149.277 248.251L156.623 252.916L162.326 258.2L169.313 265.925L176.503 271.196M149.277 248.251L142.9 252.191L132.369 256.403L121.229 260.991L106.738 267.381L91.2265 274.493L76.4982 282.419L61.9021 288.867L48.0368 290.246L42.6594 291.002L37.2952 289.96L33.0314 288.059L30.843 286.903L27.0011 286.157L23.1499 286.139L19.3353 286.469L15.6257 286.844L11.4932 287.347L7.82933 289.533L5.6629 291.971L3.17042 297.13L3.37795 303.726L6.24151 307.352L21.3126 315.422L26.3049 316.392L31.5122 315.906L40.326 314.706L49.1615 316.424L54.9045 315.824L61.6854 312.592L69.0455 311.186L78.2824 310.016L97.9056 304.815L111.546 301.704M149.277 248.251L144.433 244.303L140.137 239.722L138.56 236.348L137.677 233.852L137.677 231.385L138.56 229.557L137.248 228.937L135.996 227.18L135.996 224.644L137.109 218.918L139.57 214.558L144.468 210.756L149.608 206.152L153.415 200.101L157.196 195.064L162.649 191.03L170.187 187.048L177.837 185.278M176.503 271.196L170.223 276.165L159.769 281.437L150.2 285.956L138.303 291.039L125.498 296.039L111.546 301.704M176.503 271.196L184.792 272.807L195.007 273.511L206.572 270.701L215.813 266.239M202.895 187.887L208.695 189.266L239.876 193.572L268.591 194.768L287.302 186.962L301.731 176.108L320.356 153.979L332.31 133.143L344.893 117.576L356.395 104.74L366.711 95.1652L379.157 86.9237L394.792 79.3024L406.761 74.4609L420.118 70.9918L434.936 69.4609L451.353 69.1596L466.855 69.7827L481.379 72.6057L490.588 74.3959L500.404 68.2941L506.772 55.6622L514.703 36.8141L521.978 27.4405L531.904 20.8944L540.054 14.9507L557.619 7.22189L573.817 4.08757L588.076 3.3029L600.473 4.17155L615.668 8.12015L626.806 14.3877L637.953 25.3172L645.455 38.3688L649.375 52.2039L649.846 71.3626L648.688 81.9927L648.634 92.4396L649.492 100.713L651.748 108.113L655.109 116.718L661.339 124.772L666.44 129.887L670.388 131.709L674.105 132.605L676.63 134.702L677.089 137.315L675.642 139.787L673.424 141.401L670.769 142.346L667.033 142.177L661.654 140.345L657.153 138.238L649.118 131.918L642.555 123.716L638.093 110.244L634.569 94.3731L633.936 79.1251L633.521 63.2291L630.451 52.8557L624.333 45.1976L616.374 38.7049L606.194 35.3348L596.36 34.8147L585.298 34.9124L576.574 35.9142L566.987 39.2212L557.68 45.168L545.882 54.4919L537.271 65.858L531.551 80.0384L525.223 112.593L527.597 122.943L528.818 138.255L525.995 152.779L522.621 170.136L515.915 183.043L509.083 198.484L500.906 212.95L492.544 226.666L483.662 243.314L480.888 257.581L480.437 276.106L478.166 287.788L476.241 297.695L465.18 311.965L451.963 326.276L436.845 338.529L427.463 345.807L422.067 348.367L416.032 350.288L407.162 350.287L401.261 348.824L394.76 346.616L389.034 342.126L388.718 336.845L390.845 332.811L393.867 329.482L397.014 326.337L401.261 325.014L406.289 325.991L412.606 327.581L416.473 325.014L422.053 319.257L427.463 311.965L433.388 305.785L437.804 299.494L437.049 286.954L434.822 277.459L432.784 264.418M202.895 187.887L199.279 185.233L195.031 179.31L192.093 175.001L188.808 171.115L185.041 168.156L182.378 166.316L178.636 163.814L176.507 169.328L175.581 174.094L175.814 178.331L176.518 182.092L177.837 185.278M202.895 187.887L192.953 186.205L184.907 185.255L177.837 185.278" stroke="black" stroke-width="5"/>
<path d="M193.728 208.859L197.995 211.56L201.188 214.66L205.059 218.771L209.043 222.329L212 224.904L215.769 228.245L217.282 230.975L215.575 235.756L212.389 239.362L209.121 242.764L205.973 245.903L203.3 249.125L202.867 244.452L203.023 240.741L202.813 237.501L200.912 229.714L198.438 224.876L196.047 218.524L194.14 213.291L193.728 208.859Z" stroke="black" stroke-width="5"/>
<path d="M166.847 221.418L169.395 222.278L172.634 225.757L175.039 228.487L177.411 230.671L175.585 229.579L173.594 227.657L171.847 225.757L170.159 224.015L168.944 222.848L166.847 221.418Z" fill="black"/>
<path d="M164.162 220.887L166.847 221.418M178.991 231.435L177.411 230.671M166.847 221.418L169.395 222.278L172.634 225.757L175.039 228.487L177.411 230.671M166.847 221.418L168.944 222.848L170.159 224.015L171.847 225.757L173.594 227.657L175.585 229.579L177.411 230.671" stroke="black" stroke-width="5"/>
</svg>
