<svg width="680" height="353" viewBox="0 0 680 353" fill="none" xmlns="http://www.w3.org/2000/svg">
<path d="M247.423 239.147L248.145 228.468M247.423 239.147L247.306 246.241M247.423 239.147L247.005 264.418M247.306 246.241L254.189 252.333L263.316 259.178L272.062 265.453L281.783 271.201L286.905 274.062M247.306 246.241L247.005 264.418M286.905 274.062L295.302 278.567L308.18 285.291L322.269 292.973L340.289 301.247L358.036 309.559L391.196 317.383L432.984 320.895L472.607 318.299L495.402 315.862L514.245 322.59L534.842 328.201L550.644 331.971L571.821 335.805L585.973 338.694L593.215 342.186L604.18 345.324L616.74 348.935L632.198 350.03L641.259 349.316L649.887 346.591L655.384 342.675L655.471 334.822L651.094 330.397L646.129 327.254L640.205 325.983L632.767 327.429L624.852 326.445L618.703 321.655L608.438 318.241L596.009 312.799L582.49 307.938L568.243 301.704M286.905 274.062L292.216 280.366L298.077 286.954L305.907 294.218L312.789 296.428L318.124 296.596L322.269 297.36L327.068 299.744L329.409 304.132L329.551 308.39L327.264 312.824L322.005 316.563L314.034 319.257L304.722 319.923L298.077 317.438L292.216 313.76L283.897 307.194L276.656 299.904L266.027 288.368L257.737 277.812L252.751 271.201L247.005 264.418M530.512 248.251L523.167 252.916L517.463 258.2L510.476 265.925L503.286 271.196M530.512 248.251L536.889 252.191L547.42 256.403L558.56 260.991L573.051 267.381L588.563 274.493L603.291 282.419L617.887 288.867L631.752 290.246L637.13 291.002L642.494 289.96L646.758 288.059L648.946 286.903L652.788 286.157L656.639 286.139L660.454 286.469L664.163 286.844L668.296 287.347L671.96 289.533L674.126 291.971L676.619 297.13L676.411 303.726L673.548 307.352L658.476 315.422L653.484 316.392L648.277 315.906L639.463 314.706L630.628 316.424L624.885 315.824L618.104 312.592L610.744 311.186L601.507 310.016L581.883 304.815L568.243 301.704M530.512 248.251L535.356 244.303L539.653 239.722L541.229 236.348L542.112 233.852L542.112 231.385L541.229 229.557L542.541 228.937L543.793 227.18L543.793 224.644L542.68 218.918L540.22 214.558L535.321 210.756L530.182 206.152L526.374 200.101L522.593 195.064L517.14 191.03L509.602 187.048L501.953 185.278M503.286 271.196L509.566 276.165L520.02 281.437L529.589 285.956L541.486 291.039L554.291 296.039L568.243 301.704M503.286 271.196L494.997 272.807L484.782 273.511L473.218 270.701L463.976 266.239M476.895 187.887L471.094 189.266L439.913 193.572L411.198 194.768L392.487 186.962L378.058 176.108L359.433 153.979L347.48 133.143L334.896 117.576L323.394 104.74L313.078 95.1652L300.632 86.9237L284.997 79.3024L273.028 74.4609L259.671 70.9918L244.853 69.4609L228.436 69.1596L212.934 69.7827L198.411 72.6057L189.201 74.3959L179.385 68.2941L173.017 55.6622L165.086 36.8141L157.811 27.4405L147.885 20.8944L139.735 14.9507L122.17 7.22189L105.973 4.08757L91.7133 3.3029L79.3165 4.17155L64.1212 8.12015L52.9829 14.3877L41.8362 25.3172L34.3336 38.3688L30.4143 52.2039L29.9426 71.3626L31.1008 81.9927L31.1547 92.4396L30.2973 100.713L28.0406 108.113L24.68 116.718L18.4497 124.772L13.3492 129.887L9.40063 131.709L5.68437 132.605L3.15873 134.702L2.69974 137.315L4.14704 139.787L6.36476 141.401L9.01982 142.346L12.7559 142.177L18.1351 140.345L22.6356 138.238L30.6713 131.918L37.2343 123.716L41.6962 110.244L45.2197 94.3731L45.8532 79.1251L46.2681 63.2291L49.3378 52.8557L55.4565 45.1976L63.4155 38.7049L73.5953 35.3348L83.4288 34.8147L94.4911 34.9124L103.215 35.9142L112.802 39.2212L122.109 45.168L133.907 54.4919L142.518 65.858L148.238 80.0384L154.566 112.593L152.192 122.943L150.971 138.255L153.794 152.779L157.168 170.136L163.874 183.043L170.706 198.484L178.883 212.95L187.245 226.666L196.127 243.314L198.901 257.581L199.352 276.106L201.623 287.788L203.549 297.695L214.609 311.965L227.826 326.276L242.945 338.529L252.326 345.807L257.722 348.367L263.757 350.288L272.627 350.287L278.528 348.824L285.029 346.616L290.755 342.126L291.071 336.845L288.944 332.811L285.922 329.482L282.775 326.337L278.528 325.014L273.501 325.991L267.183 327.581L263.316 325.014L257.737 319.257L252.326 311.965L246.401 305.785L241.985 299.494L242.741 286.954L244.967 277.459L247.005 264.418M476.895 187.887L480.51 185.233L484.758 179.31L487.696 175.001L490.981 171.115L494.748 168.156L497.411 166.316L501.153 163.814L503.282 169.328L504.209 174.094L503.975 178.331L503.271 182.092L501.953 185.278M476.895 187.887L486.836 186.205L494.882 185.255L501.953 185.278" stroke="black" stroke-width="5"/>
<path d="M486.062 208.859L481.794 211.56L478.602 214.66L474.73 218.771L470.746 222.329L467.789 224.904L464.02 228.245L462.507 230.975L464.214 235.756L467.4 239.362L470.668 242.764L473.816 245.903L476.489 249.125L476.922 244.452L476.766 240.741L476.976 237.501L478.877 229.714L481.351 224.876L483.742 218.524L485.649 213.291L486.062 208.859Z" stroke="black" stroke-width="5"/>
<path d="M512.942 221.418L510.394 222.278L507.155 225.757L504.75 228.487L502.378 230.671L504.204 229.579L506.196 227.657L507.942 225.757L509.63 224.015L510.845 222.848L512.942 221.418Z" fill="black"/>
<path d="M515.627 220.887L512.942 221.418M500.798 231.435L502.378 230.671M512.942 221.418L510.394 222.278L507.155 225.757L504.75 228.487L502.378 230.671M512.942 221.418L510.845 222.848L509.63 224.015L507.942 225.757L506.196 227.657L504.204 229.579L502.378 230.671" stroke="black" stroke-width="5"/>
</svg>
