<svg width="19" height="18" viewBox="0 0 19 18" fill="none" xmlns="http://www.w3.org/2000/svg">
<rect x="1" y="1" width="17" height="16" rx="2" stroke="#5DB479" stroke-width="2"/>
<rect x="4.93213" y="5.08008" width="3.69873" height="4.18994" rx="1" fill="#5DB479"/>
<path d="M7.37243 7.44098C7.37243 7.09496 7.65294 6.81445 7.99896 6.81445V6.81445C8.34498 6.81445 8.62549 7.09496 8.62549 7.44098V11.0576C8.62549 11.2179 8.58695 11.3759 8.51312 11.5182L8.34216 11.8476C8.29267 11.943 8.22812 12.0298 8.15101 12.1047L7.91106 12.3376C7.81676 12.4291 7.70536 12.5011 7.58321 12.5496L7.03174 12.7683C6.9553 12.7986 6.87541 12.8193 6.79388 12.8301L6.11431 12.9197H5.55089C5.30057 12.9197 5.09766 12.7168 5.09766 12.4665V12.4665C5.09766 12.2443 5.2587 12.0549 5.47797 12.0192L6.03164 11.9289C6.08665 11.9199 6.14082 11.9064 6.19358 11.8884L6.64374 11.7349C6.88297 11.6533 7.08243 11.4841 7.20198 11.2614L7.2535 11.1654C7.33157 11.02 7.37243 10.8575 7.37243 10.6924V7.44098Z" fill="#5DB479"/>
<rect x="10.3691" y="5.08008" width="3.69873" height="4.18994" rx="1" fill="#5DB479"/>
<path d="M12.8094 7.44098C12.8094 7.09496 13.0899 6.81445 13.436 6.81445V6.81445C13.782 6.81445 14.0625 7.09496 14.0625 7.44098V11.0576C14.0625 11.2179 14.024 11.3759 13.9501 11.5182L13.7792 11.8476C13.7297 11.943 13.6651 12.0298 13.588 12.1047L13.3481 12.3376C13.2538 12.4291 13.1424 12.5011 13.0202 12.5496L12.4688 12.7683C12.3923 12.7986 12.3124 12.8193 12.2309 12.8301L11.5513 12.9197H10.9879C10.7376 12.9197 10.5347 12.7168 10.5347 12.4665V12.4665C10.5347 12.2443 10.6957 12.0549 10.915 12.0192L11.4687 11.9289C11.5237 11.9199 11.5778 11.9064 11.6306 11.8884L12.0808 11.7349C12.32 11.6533 12.5194 11.4841 12.639 11.2614L12.6905 11.1654C12.7686 11.02 12.8094 10.8575 12.8094 10.6924V7.44098Z" fill="#5DB479"/>
</svg>
