<svg width="19" height="18" viewBox="0 0 19 18" fill="none" xmlns="http://www.w3.org/2000/svg">
<path d="M16.6928 12.2112C16.6928 11.6109 17.2097 11.1236 17.8466 11.1236C18.483 11.1236 19 11.6109 19 12.2112V15.3014C19 16.0432 18.6779 16.7192 18.1597 17.2079C17.6416 17.6963 16.9246 18 16.1373 18H2.86269C2.07544 18 1.35837 17.6963 0.840255 17.2079C0.322141 16.7192 0 16.0432 0 15.3014V2.69856C0 1.95645 0.322141 1.28049 0.840255 0.792079C1.35837 0.303671 2.07544 0 2.86269 0H6.10949C6.74631 0 7.26293 0.487352 7.26293 1.0873C7.26293 1.68761 6.74631 2.17496 6.10949 2.17496H2.86269C2.71077 2.17496 2.57079 2.23443 2.47037 2.32873C2.37033 2.42339 2.30725 2.55534 2.30725 2.69856V15.3014C2.30725 15.4443 2.37033 15.5766 2.47037 15.6709C2.57079 15.7652 2.71077 15.825 2.86269 15.825H16.1373C16.2892 15.825 16.4292 15.7652 16.5296 15.6709C16.6297 15.5766 16.6928 15.4443 16.6928 15.3014V12.2112ZM16.6928 3.64089L11.5027 8.59569C11.0581 9.02217 7.71497 11.5427 7.26293 11.1236C6.81088 10.7045 9.41825 7.50205 9.86283 7.07593L14.9973 2.17496H11.5605C10.9237 2.17496 10.4071 1.68761 10.4071 1.0873C10.4071 0.487352 10.9237 0 11.5605 0H17.8466C18.483 0 19 0.487352 19 1.0873V6.89471C19 7.49501 18.483 7.98201 17.8466 7.98201C17.2097 7.98201 16.6928 7.49501 16.6928 6.89471V3.64089Z" fill="#5DB479"/>
</svg>
