<svg width="34" height="34" viewBox="0 0 34 34" fill="none" xmlns="http://www.w3.org/2000/svg">
<path d="M16.9999 0C7.68776 0 0.111572 7.58056 0.111572 16.8983C0.111572 26.2164 7.68776 33.7967 16.9999 33.7967C26.3123 33.7967 33.8888 26.2164 33.8888 16.8983C33.8885 7.58056 26.312 0 16.9999 0ZM16.9999 32.13C8.60612 32.13 1.77728 25.2972 1.77728 16.8983C1.77728 8.49972 8.60612 1.66667 16.9999 1.66667C25.3937 1.66667 32.2231 8.49972 32.2231 16.8983C32.2228 25.2972 25.3937 32.13 16.9999 32.13Z" fill="black"/>
<path d="M25.8182 9.79907H8.18183C6.97871 9.79907 6 10.7777 6 11.9809V22.0192C6 23.2224 6.97871 24.2011 8.18183 24.2011H25.8182C27.0213 24.2011 28 23.2224 28 22.0192V11.9809C28 10.7777 27.0213 9.79907 25.8182 9.79907ZM26.5455 11.9809V22.0192C26.5455 22.134 26.5132 22.2388 26.4656 22.3353L21.3239 17.1932L26.544 11.9731C26.544 11.9759 26.5455 11.978 26.5455 11.9809ZM7.45455 22.0192V11.9809C7.45455 11.978 7.45602 11.976 7.45602 11.9731L12.6762 17.1933L7.53412 22.3353C7.48687 22.2387 7.45455 22.134 7.45455 22.0192ZM17.2245 19.2359C17.1045 19.3559 16.8956 19.3559 16.7756 19.2359L8.79368 11.2536H25.2067L17.2245 19.2359ZM13.7046 18.2217L15.7472 20.2643C16.082 20.5992 16.527 20.7834 17 20.7834C17.473 20.7834 17.918 20.5992 18.2529 20.2643L20.2955 18.2217L24.8199 22.7465H9.17974L13.7046 18.2217Z" fill="black"/>
</svg>
