<svg width="308" height="123" viewBox="0 0 308 123" fill="none" xmlns="http://www.w3.org/2000/svg">
<path d="M18.0498 18.37H65.2698V30.06H31.8298V46.11H61.7498V57.8H31.8298V83.54H18.0498V18.37ZM183.8 18.37H197.57V71.57H232.72V83.57H183.8V18.37ZM237.09 64.44C237.09 63.68 237.18 62.83 237.18 62.35H251.18C251.18 62.54 251.08 63.35 251.08 63.87C251.08 69.38 256.08 72.99 265.14 72.99C275.02 72.99 278.44 70.05 278.44 66.15C278.44 52.48 238.73 59.7 238.73 35.47C238.73 23.12 249.85 17.23 265.14 17.23C279.2 17.23 290.79 23.03 290.79 36.42V37.56H277.08V36.71C277.08 31.86 272.43 28.92 264.92 28.92C256.85 28.92 252.57 31.2 252.57 35C252.57 46.59 292.28 40.79 292.28 64.35C292.28 78.98 280.69 84.68 264.45 84.68C249.91 84.68 237.09 77.84 237.09 64.44ZM86.9998 35.07H73.9998V83.57H86.9998V35.07ZM86.9998 18.18H73.9998V30.61H86.9998V18.18Z" fill="black"/>
<path d="M18.6104 99.5498H26.0004V101.39H20.7404V104.47H25.5304V106.29H20.7404V111.24H18.6104V99.5498Z" fill="black"/>
<path d="M29.4396 104.22C29.5818 103.694 29.8885 103.227 30.3148 102.887C30.741 102.547 31.2647 102.352 31.8096 102.33C32.0734 102.339 32.3353 102.379 32.5896 102.45V104.58C32.2617 104.504 31.9261 104.467 31.5896 104.47C30.1696 104.47 29.4696 105.47 29.4696 107.4V111.24H27.3096V102.47H29.4396V104.22Z" fill="black"/>
<path d="M37.7098 102.25C38.2716 102.25 38.8294 102.345 39.3598 102.53C39.8664 102.71 40.3249 103.005 40.6998 103.39C41.5144 104.375 41.9601 105.612 41.9601 106.89C41.9601 108.168 41.5144 109.406 40.6998 110.39C40.3064 110.779 39.8367 111.082 39.3203 111.28C38.804 111.477 38.2522 111.566 37.6998 111.54C37.1483 111.559 36.5986 111.466 36.0834 111.269C35.5681 111.071 35.0976 110.772 34.6998 110.39C33.8852 109.406 33.4395 108.168 33.4395 106.89C33.4395 105.612 33.8852 104.375 34.6998 103.39C35.0987 103.007 35.5709 102.708 36.0882 102.512C36.6055 102.316 37.1571 102.227 37.7098 102.25ZM39.8098 106.86C39.8609 106.126 39.6713 105.396 39.2698 104.78C39.0929 104.554 38.8645 104.373 38.6036 104.253C38.3426 104.133 38.0567 104.077 37.7698 104.09C37.4733 104.081 37.1786 104.139 36.9071 104.258C36.6355 104.378 36.3939 104.556 36.1998 104.78C35.7476 105.375 35.5272 106.114 35.5798 106.86C35.5279 107.595 35.7214 108.327 36.1298 108.94C36.3093 109.166 36.5396 109.346 36.802 109.466C37.0645 109.586 37.3515 109.642 37.6398 109.63C37.9346 109.637 38.2273 109.579 38.497 109.46C38.7667 109.34 39.0067 109.163 39.1998 108.94C39.6552 108.347 39.8728 107.605 39.8098 106.86Z" fill="black"/>
<path d="M45.84 104C46.0722 103.536 46.4147 103.136 46.8373 102.836C47.26 102.535 47.75 102.343 48.2643 102.276C48.7787 102.209 49.3016 102.269 49.7873 102.451C50.2729 102.633 50.7065 102.931 51.05 103.32C51.6324 104.134 51.9215 105.121 51.87 106.12V111.24H49.75V106.12C49.7861 105.591 49.6178 105.068 49.28 104.66C49.109 104.489 48.904 104.356 48.6783 104.27C48.4526 104.184 48.2112 104.147 47.97 104.16C47.6851 104.161 47.4048 104.231 47.1524 104.363C46.9001 104.496 46.6832 104.686 46.52 104.92C46.0613 105.585 45.8363 106.383 45.88 107.19V111.19H43.75V102.44H45.61L45.84 104Z" fill="black"/>
<path d="M59.06 111C58.4686 111.264 57.8359 111.423 57.19 111.47C56.7844 111.474 56.3803 111.42 55.99 111.31C55.6576 111.207 55.3485 111.041 55.08 110.82C54.8055 110.566 54.5892 110.256 54.446 109.911C54.3027 109.566 54.2358 109.193 54.25 108.82V103.92H53V102.5H54.22V100.19H56.35V102.5H58.72V103.92H56.38V108.74C56.38 109.46 56.7133 109.82 57.38 109.82C57.8421 109.8 58.2979 109.705 58.73 109.54L59.06 111Z" fill="black"/>
<path d="M60.3002 99.6598C60.2915 99.493 60.3172 99.3261 60.3757 99.1695C60.4342 99.013 60.5242 98.8701 60.6402 98.7498C60.9167 98.5366 61.256 98.4209 61.6052 98.4209C61.9544 98.4209 62.2937 98.5366 62.5702 98.7498C62.6895 98.8682 62.7824 99.0105 62.8427 99.1673C62.903 99.3242 62.9294 99.492 62.9202 99.6598C62.9314 99.8278 62.9059 99.9962 62.8455 100.153C62.785 100.311 62.6911 100.453 62.5702 100.57C62.2937 100.783 61.9544 100.899 61.6052 100.899C61.256 100.899 60.9167 100.783 60.6402 100.57C60.5227 100.451 60.4317 100.308 60.3731 100.151C60.3145 99.9943 60.2897 99.8269 60.3002 99.6598ZM60.5502 102.47H62.6702V111.24H60.5502V102.47Z" fill="black"/>
<path d="M72.1804 104.86C72.3223 105.31 72.3997 105.778 72.4104 106.25C72.4119 106.628 72.3852 107.006 72.3304 107.38H66.6804C66.6748 107.997 66.8599 108.601 67.2104 109.11C67.3794 109.336 67.6027 109.516 67.8596 109.633C68.1165 109.75 68.3988 109.801 68.6804 109.78C69.0397 109.827 69.4033 109.733 69.6956 109.519C69.9879 109.305 70.1866 108.987 70.2504 108.63H72.3904C72.2747 109.452 71.84 110.196 71.1804 110.7C70.4595 111.237 69.5788 111.515 68.6804 111.49C68.1349 111.5 67.5935 111.393 67.0931 111.176C66.5927 110.958 66.145 110.636 65.7804 110.23C64.962 109.303 64.5323 108.096 64.5804 106.86C64.5222 105.619 64.9531 104.406 65.7804 103.48C66.1485 103.08 66.5976 102.764 67.0977 102.552C67.5978 102.34 68.1374 102.237 68.6804 102.25C69.2197 102.225 69.7572 102.328 70.2491 102.55C70.741 102.772 71.1732 103.108 71.5104 103.53C71.8138 103.928 72.041 104.379 72.1804 104.86ZM68.7004 104C68.437 103.985 68.1737 104.03 67.9298 104.13C67.6858 104.231 67.4674 104.384 67.2904 104.58C66.9439 105.007 66.7378 105.531 66.7004 106.08H70.4304C70.4715 105.711 70.4091 105.338 70.2502 105.002C70.0912 104.666 69.842 104.382 69.5304 104.18C69.2723 104.054 68.9875 103.992 68.7004 104Z" fill="black"/>
<path d="M76.3798 104.22C76.524 103.693 76.8325 103.225 77.2605 102.886C77.6884 102.546 78.2136 102.351 78.7598 102.33C79.0203 102.339 79.2789 102.379 79.5298 102.45V104.58C79.2019 104.505 78.8662 104.468 78.5298 104.47C77.1198 104.47 76.4098 105.47 76.4098 107.4V111.24H74.2598V102.47H76.3798V104.22Z" fill="black"/>
<path d="M82.4195 108.57C82.4195 109.4 83.0495 109.81 84.2395 109.81C84.6337 109.83 85.0244 109.729 85.3595 109.52C85.4877 109.452 85.5957 109.352 85.6729 109.229C85.7501 109.106 85.7938 108.965 85.7996 108.82C85.8047 108.705 85.7829 108.589 85.7361 108.484C85.6893 108.378 85.6186 108.284 85.5295 108.21C85.2735 108.034 84.9895 107.902 84.6896 107.82L82.7795 107.13C81.3595 106.64 80.6596 105.84 80.6596 104.72C80.6554 104.36 80.7456 104.006 80.921 103.692C81.0965 103.378 81.3511 103.115 81.6596 102.93C82.464 102.439 83.3981 102.202 84.3395 102.25C85.2625 102.19 86.1777 102.451 86.9295 102.99C87.2176 103.208 87.4521 103.489 87.615 103.811C87.7779 104.134 87.865 104.489 87.8696 104.85H85.8696C85.8567 104.711 85.8121 104.576 85.7393 104.457C85.6665 104.337 85.5674 104.236 85.4495 104.16C85.122 103.972 84.7463 103.886 84.3696 103.91C83.9857 103.885 83.6039 103.983 83.2795 104.19C83.1697 104.259 83.0778 104.353 83.0117 104.464C82.9456 104.575 82.9071 104.701 82.8996 104.83C82.8996 105.25 83.2495 105.56 83.9595 105.76L86.0295 106.54C86.6102 106.712 87.1461 107.009 87.5995 107.41C87.7831 107.589 87.927 107.804 88.0218 108.042C88.1165 108.279 88.1601 108.534 88.1496 108.79C88.1435 109.159 88.0496 109.521 87.8757 109.846C87.7018 110.171 87.4529 110.45 87.1496 110.66C86.3327 111.245 85.3429 111.537 84.3395 111.49C83.345 111.538 82.361 111.268 81.5295 110.72C81.1845 110.48 80.905 110.158 80.7164 109.782C80.5278 109.407 80.436 108.99 80.4495 108.57H82.4195Z" fill="black"/>
<path d="M94.2299 99.6598C94.2212 99.493 94.2469 99.3261 94.3054 99.1695C94.3639 99.013 94.4539 98.8701 94.5699 98.7498C94.8464 98.5366 95.1857 98.4209 95.5349 98.4209C95.8841 98.4209 96.2234 98.5366 96.4999 98.7498C96.6205 98.8677 96.7148 99.0097 96.7769 99.1665C96.8389 99.3233 96.8672 99.4914 96.8599 99.6598C96.8691 99.8285 96.8417 99.9972 96.7796 100.154C96.7175 100.311 96.622 100.453 96.4999 100.57C96.2234 100.783 95.8841 100.899 95.5349 100.899C95.1857 100.899 94.8464 100.783 94.5699 100.57C94.4524 100.451 94.3614 100.308 94.3028 100.151C94.2442 99.9943 94.2194 99.8269 94.2299 99.6598ZM94.4799 102.47H96.5999V111.24H94.4799V102.47Z" fill="black"/>
<path d="M101.26 104C101.492 103.536 101.835 103.136 102.257 102.836C102.68 102.535 103.17 102.343 103.684 102.276C104.199 102.209 104.722 102.269 105.207 102.451C105.693 102.633 106.126 102.931 106.47 103.32C107.052 104.134 107.341 105.121 107.29 106.12V111.24H105.17V106.12C105.206 105.591 105.038 105.068 104.7 104.66C104.529 104.489 104.324 104.356 104.098 104.27C103.872 104.184 103.631 104.147 103.39 104.16C103.105 104.161 102.825 104.231 102.572 104.363C102.32 104.496 102.103 104.686 101.94 104.92C101.481 105.585 101.256 106.383 101.3 107.19V111.19H99.1699V102.44H101L101.26 104Z" fill="black"/>
<path d="M118.45 99.3199C119.182 99.3103 119.908 99.4427 120.59 99.7099C121.227 99.9612 121.801 100.351 122.27 100.85C123.323 102.119 123.849 103.744 123.74 105.39C123.847 107.051 123.322 108.69 122.27 109.98C121.774 110.49 121.175 110.889 120.513 111.149C119.851 111.41 119.14 111.526 118.43 111.49C117.72 111.524 117.012 111.403 116.354 111.135C115.696 110.867 115.104 110.459 114.62 109.94C113.658 108.612 113.14 107.014 113.14 105.375C113.14 103.735 113.658 102.138 114.62 100.81C115.116 100.304 115.714 99.9101 116.375 99.6532C117.035 99.3963 117.742 99.2827 118.45 99.3199ZM121.55 105.41C121.616 104.316 121.321 103.23 120.71 102.32C120.45 101.968 120.108 101.685 119.715 101.495C119.321 101.305 118.887 101.214 118.45 101.23C118.012 101.215 117.576 101.307 117.181 101.496C116.786 101.686 116.442 101.969 116.18 102.32C115.569 103.23 115.273 104.316 115.34 105.41C115.267 106.502 115.563 107.586 116.18 108.49C116.445 108.837 116.79 109.115 117.184 109.301C117.579 109.487 118.013 109.576 118.45 109.56C118.885 109.577 119.318 109.489 119.711 109.302C120.105 109.116 120.447 108.837 120.71 108.49C121.326 107.586 121.622 106.502 121.55 105.41Z" fill="black"/>
<path d="M127.57 103.68C127.812 103.228 128.178 102.854 128.623 102.601C129.069 102.348 129.578 102.227 130.09 102.25C130.613 102.245 131.13 102.352 131.608 102.564C132.086 102.776 132.513 103.088 132.86 103.48C133.657 104.429 134.095 105.63 134.095 106.87C134.095 108.11 133.657 109.31 132.86 110.26C132.514 110.65 132.088 110.961 131.613 111.173C131.137 111.385 130.621 111.493 130.1 111.49C129.658 111.523 129.215 111.45 128.808 111.276C128.4 111.102 128.041 110.832 127.76 110.49V115.49H125.64V102.49H127.38L127.57 103.68ZM129.71 109.56C129.981 109.559 130.249 109.505 130.5 109.4C130.774 109.284 131.023 109.114 131.23 108.9C131.72 108.352 131.979 107.635 131.95 106.9C131.99 106.18 131.77 105.47 131.33 104.9C131.147 104.674 130.915 104.491 130.652 104.367C130.389 104.242 130.101 104.178 129.81 104.18C129.274 104.158 128.751 104.344 128.35 104.7C128.156 104.89 128.003 105.117 127.9 105.368C127.796 105.619 127.745 105.889 127.75 106.16V107.73C127.742 107.988 127.791 108.246 127.895 108.483C127.999 108.72 128.154 108.931 128.35 109.1C128.73 109.416 129.215 109.58 129.71 109.56Z" fill="black"/>
<path d="M140.82 111C140.229 111.264 139.596 111.423 138.95 111.47C138.544 111.474 138.14 111.42 137.75 111.31C137.418 111.207 137.109 111.041 136.84 110.82C136.566 110.566 136.349 110.256 136.206 109.911C136.063 109.566 135.996 109.193 136.01 108.82V103.92H134.79V102.5H136V100.19H138.13V102.5H140.5V103.92H138.13V108.74C138.13 109.46 138.463 109.82 139.13 109.82C139.592 109.8 140.048 109.705 140.48 109.54L140.82 111Z" fill="black"/>
<path d="M142.06 99.6598C142.051 99.493 142.077 99.3261 142.135 99.1695C142.194 99.013 142.284 98.8701 142.4 98.7498C142.676 98.5366 143.016 98.4209 143.365 98.4209C143.714 98.4209 144.053 98.5366 144.33 98.7498C144.449 98.8682 144.542 99.0105 144.602 99.1673C144.663 99.3242 144.689 99.492 144.68 99.6598C144.691 99.8278 144.666 99.9962 144.605 100.153C144.545 100.311 144.451 100.453 144.33 100.57C144.053 100.783 143.714 100.899 143.365 100.899C143.016 100.899 142.676 100.783 142.4 100.57C142.282 100.451 142.191 100.308 142.133 100.151C142.074 99.9943 142.049 99.8269 142.06 99.6598ZM142.31 102.47H144.43V111.24H142.31V102.47Z" fill="black"/>
<path d="M150.46 102.25C150.97 102.245 151.476 102.34 151.95 102.53C152.359 102.703 152.732 102.95 153.05 103.26C153.652 103.838 154.031 104.61 154.12 105.44H151.97C151.89 105.078 151.705 104.748 151.44 104.49C151.325 104.37 151.187 104.274 151.034 104.209C150.881 104.143 150.716 104.11 150.55 104.11C150.255 104.101 149.962 104.156 149.69 104.27C149.446 104.375 149.23 104.536 149.06 104.74C148.621 105.345 148.405 106.084 148.45 106.83C148.4 107.543 148.601 108.251 149.02 108.83C149.187 109.04 149.4 109.209 149.643 109.325C149.885 109.442 150.151 109.501 150.42 109.5C150.632 109.519 150.846 109.495 151.048 109.43C151.251 109.364 151.439 109.259 151.6 109.12C151.728 108.976 151.827 108.809 151.891 108.627C151.954 108.445 151.981 108.252 151.97 108.06H154.12C154.127 108.507 154.041 108.951 153.869 109.364C153.697 109.777 153.442 110.15 153.12 110.46C152.757 110.801 152.329 111.065 151.862 111.237C151.394 111.409 150.897 111.485 150.4 111.46C149.856 111.47 149.316 111.363 148.817 111.146C148.318 110.928 147.872 110.606 147.51 110.2C146.671 109.282 146.222 108.073 146.26 106.83C146.231 106.208 146.327 105.588 146.542 105.004C146.756 104.42 147.086 103.885 147.51 103.43C147.892 103.038 148.351 102.73 148.86 102.527C149.368 102.323 149.913 102.229 150.46 102.25Z" fill="black"/>
<path d="M157.29 108.57C157.29 109.4 157.92 109.81 159.11 109.81C159.508 109.828 159.901 109.727 160.24 109.52C160.367 109.451 160.474 109.35 160.551 109.227C160.628 109.105 160.673 108.965 160.68 108.82C160.686 108.705 160.664 108.589 160.617 108.484C160.57 108.378 160.499 108.284 160.41 108.21C160.151 108.034 159.863 107.902 159.56 107.82L157.65 107.13C156.24 106.64 155.53 105.84 155.53 104.72C155.526 104.36 155.616 104.006 155.792 103.692C155.967 103.378 156.222 103.115 156.53 102.93C157.336 102.441 158.269 102.204 159.21 102.25C160.133 102.19 161.049 102.451 161.8 102.99C162.088 103.209 162.323 103.49 162.487 103.812C162.652 104.134 162.742 104.489 162.75 104.85H160.75C160.74 104.71 160.696 104.575 160.623 104.455C160.55 104.335 160.45 104.234 160.33 104.16C160.003 103.972 159.627 103.886 159.25 103.91C158.87 103.885 158.491 103.984 158.17 104.19C158.058 104.257 157.964 104.35 157.896 104.462C157.828 104.573 157.788 104.7 157.78 104.83C157.78 105.25 158.13 105.56 158.84 105.76L160.91 106.54C161.493 106.714 162.032 107.011 162.49 107.41C162.671 107.591 162.812 107.806 162.905 108.044C162.998 108.281 163.04 108.535 163.03 108.79C163.024 109.159 162.93 109.521 162.757 109.846C162.583 110.171 162.334 110.45 162.03 110.66C161.214 111.245 160.224 111.537 159.22 111.49C158.226 111.536 157.242 111.267 156.41 110.72C156.065 110.48 155.786 110.158 155.597 109.782C155.409 109.407 155.317 108.99 155.33 108.57H157.29Z" fill="black"/>
<path d="M174.59 104.69V99.8198H172.53V104.69H167.79V106.49H172.53V111.36H174.59V106.49H179.33V104.69H174.59Z" fill="black"/>
<path d="M186.41 109.38H191.22V111.24H184.29V99.5498H186.41V109.38Z" fill="black"/>
<path d="M195.73 106.12C196.545 106.138 197.354 106.255 198.14 106.47V105.6C198.179 105.117 198.048 104.636 197.77 104.24C197.616 104.082 197.428 103.96 197.22 103.884C197.012 103.808 196.79 103.779 196.57 103.8C196.114 103.769 195.661 103.889 195.28 104.14C195.133 104.247 195.014 104.388 194.935 104.553C194.857 104.717 194.821 104.898 194.83 105.08H192.51C192.476 104.659 192.555 104.236 192.74 103.856C192.924 103.476 193.208 103.153 193.56 102.92C194.462 102.428 195.484 102.196 196.51 102.25C198.31 102.25 199.51 102.88 200 104.14C200.189 104.627 200.281 105.147 200.27 105.67V111.24H198.41L198.25 110.07C197.992 110.523 197.613 110.895 197.156 111.146C196.699 111.397 196.181 111.516 195.66 111.49C194.711 111.548 193.774 111.253 193.03 110.66C192.752 110.407 192.532 110.098 192.383 109.753C192.235 109.408 192.162 109.035 192.17 108.66C192.158 108.288 192.244 107.919 192.419 107.591C192.595 107.263 192.854 106.986 193.17 106.79C193.938 106.317 194.829 106.084 195.73 106.12ZM198.14 107.82C197.49 107.63 196.817 107.533 196.14 107.53C194.99 107.53 194.42 107.91 194.42 108.68C194.421 108.84 194.456 108.998 194.523 109.143C194.591 109.287 194.688 109.416 194.81 109.52C195.225 109.784 195.716 109.904 196.206 109.861C196.696 109.818 197.158 109.613 197.52 109.28C197.907 108.891 198.129 108.368 198.14 107.82Z" fill="black"/>
<path d="M203.86 108.57C203.86 109.4 204.49 109.81 205.67 109.81C206.068 109.828 206.461 109.727 206.8 109.52C206.927 109.451 207.034 109.35 207.111 109.227C207.188 109.105 207.233 108.965 207.24 108.82C207.246 108.705 207.224 108.589 207.177 108.484C207.13 108.378 207.059 108.284 206.97 108.21C206.712 108.032 206.424 107.9 206.12 107.82L204.22 107.13C202.8 106.64 202.09 105.84 202.09 104.72C202.086 104.36 202.177 104.006 202.352 103.692C202.527 103.378 202.782 103.115 203.09 102.93C203.896 102.442 204.829 102.205 205.77 102.25C206.693 102.19 207.609 102.451 208.36 102.99C208.65 103.208 208.886 103.488 209.05 103.81C209.215 104.133 209.304 104.488 209.31 104.85H207.31C207.302 104.711 207.26 104.576 207.189 104.456C207.117 104.336 207.019 104.234 206.9 104.16C206.573 103.972 206.197 103.886 205.82 103.91C205.437 103.885 205.055 103.983 204.73 104.19C204.618 104.257 204.524 104.35 204.456 104.462C204.388 104.573 204.348 104.7 204.34 104.83C204.34 105.25 204.7 105.56 205.4 105.76L207.47 106.54C208.054 106.712 208.593 107.009 209.05 107.41C209.232 107.59 209.375 107.805 209.469 108.043C209.564 108.28 209.609 108.535 209.6 108.79C209.595 109.159 209.502 109.521 209.328 109.847C209.154 110.172 208.904 110.451 208.6 110.66C207.784 111.246 206.794 111.539 205.79 111.49C204.799 111.538 203.818 111.268 202.99 110.72C202.645 110.48 202.366 110.158 202.177 109.782C201.989 109.407 201.897 108.99 201.91 108.57H203.86Z" fill="black"/>
<path d="M218.32 104.86C218.459 105.31 218.533 105.779 218.54 106.25C218.544 106.628 218.521 107.006 218.47 107.38H212.82C212.811 107.996 212.993 108.6 213.34 109.11C213.512 109.336 213.737 109.515 213.995 109.632C214.253 109.749 214.537 109.8 214.82 109.78C215.178 109.827 215.54 109.733 215.831 109.519C216.122 109.304 216.318 108.986 216.38 108.63H218.53C218.41 109.451 217.976 110.193 217.32 110.7C216.599 111.237 215.718 111.515 214.82 111.49C214.274 111.501 213.733 111.393 213.233 111.176C212.732 110.959 212.284 110.636 211.92 110.23C211.099 109.304 210.665 108.097 210.71 106.86C210.654 105.618 211.089 104.404 211.92 103.48C212.287 103.08 212.736 102.763 213.236 102.55C213.737 102.338 214.277 102.236 214.82 102.25C215.358 102.224 215.894 102.327 216.384 102.549C216.875 102.772 217.305 103.108 217.64 103.53C217.946 103.928 218.177 104.379 218.32 104.86ZM214.84 103.95C214.576 103.936 214.313 103.98 214.069 104.08C213.825 104.181 213.607 104.334 213.43 104.53C213.083 104.957 212.877 105.481 212.84 106.03H216.56C216.601 105.661 216.539 105.288 216.38 104.952C216.221 104.617 215.971 104.332 215.66 104.13C215.401 104.02 215.12 103.975 214.84 104V103.95Z" fill="black"/>
<path d="M222.52 104.22C222.664 103.694 222.971 103.228 223.397 102.888C223.823 102.549 224.346 102.353 224.89 102.33C225.154 102.338 225.416 102.378 225.67 102.45V104.58C225.342 104.503 225.006 104.466 224.67 104.47C223.26 104.47 222.55 105.47 222.55 107.4V111.24H220.42V102.47H222.55L222.52 104.22Z" fill="black"/>
<path d="M237.6 102.78C237.413 101.76 236.693 101.25 235.44 101.25C234.936 101.219 234.435 101.348 234.01 101.62C233.869 101.708 233.75 101.826 233.662 101.967C233.574 102.108 233.52 102.266 233.502 102.431C233.485 102.596 233.505 102.763 233.562 102.919C233.619 103.074 233.711 103.215 233.83 103.33C234.128 103.568 234.467 103.751 234.83 103.87L237.36 104.87C238.114 105.136 238.799 105.57 239.36 106.14C239.834 106.665 240.085 107.354 240.06 108.06C240.08 108.543 239.983 109.023 239.777 109.46C239.572 109.897 239.264 110.278 238.88 110.57C237.885 111.249 236.692 111.576 235.49 111.5C234.356 111.539 233.244 111.186 232.34 110.5C231.886 110.145 231.521 109.689 231.275 109.168C231.028 108.647 230.907 108.076 230.92 107.5H233.03C233.005 107.935 233.145 108.363 233.421 108.7C233.697 109.037 234.089 109.258 234.52 109.32C234.909 109.414 235.309 109.457 235.71 109.45C236.191 109.45 236.664 109.322 237.08 109.08C237.268 108.989 237.426 108.847 237.538 108.67C237.649 108.493 237.709 108.289 237.71 108.08C237.726 107.898 237.704 107.715 237.643 107.542C237.583 107.37 237.486 107.212 237.36 107.08C237.035 106.801 236.658 106.59 236.25 106.46L233.93 105.54C233.164 105.279 232.459 104.864 231.86 104.32C231.614 104.063 231.422 103.759 231.299 103.425C231.175 103.091 231.121 102.736 231.14 102.38C231.123 101.932 231.218 101.486 231.415 101.083C231.612 100.68 231.906 100.332 232.27 100.07C233.183 99.4385 234.281 99.1289 235.39 99.1902C236.466 99.1259 237.531 99.4486 238.39 100.1C238.756 100.421 239.055 100.812 239.268 101.25C239.481 101.688 239.604 102.164 239.63 102.65L237.6 102.78Z" fill="black"/>
<path d="M245.57 102.25C246.081 102.244 246.587 102.339 247.06 102.53C247.65 102.775 248.164 103.174 248.545 103.687C248.927 104.199 249.164 104.804 249.23 105.44H247.09C247.002 105.081 246.819 104.753 246.56 104.49C246.443 104.37 246.303 104.275 246.148 104.21C245.994 104.145 245.828 104.111 245.66 104.11C245.366 104.101 245.072 104.156 244.8 104.27C244.556 104.375 244.34 104.536 244.17 104.74C243.731 105.345 243.516 106.084 243.56 106.83C243.51 107.543 243.712 108.251 244.13 108.83C244.298 109.04 244.511 109.209 244.754 109.325C244.996 109.442 245.262 109.501 245.53 109.5C245.744 109.518 245.959 109.494 246.163 109.428C246.367 109.363 246.557 109.258 246.72 109.12C246.976 108.828 247.109 108.448 247.09 108.06H249.23C249.237 108.507 249.152 108.951 248.98 109.364C248.808 109.777 248.553 110.15 248.23 110.46C247.87 110.801 247.443 111.065 246.978 111.237C246.512 111.409 246.016 111.485 245.52 111.46C244.975 111.471 244.433 111.364 243.933 111.147C243.432 110.929 242.985 110.606 242.62 110.2C241.784 109.281 241.339 108.072 241.38 106.83C241.35 106.209 241.445 105.589 241.658 105.005C241.871 104.421 242.198 103.886 242.62 103.43C243.002 103.038 243.462 102.73 243.97 102.527C244.478 102.323 245.024 102.229 245.57 102.25Z" fill="black"/>
<path d="M250.87 99.6598C250.861 99.493 250.887 99.3261 250.945 99.1695C251.004 99.013 251.094 98.8701 251.21 98.7498C251.486 98.5366 251.825 98.4209 252.175 98.4209C252.524 98.4209 252.863 98.5366 253.14 98.7498C253.259 98.8682 253.352 99.0105 253.412 99.1673C253.472 99.3242 253.499 99.492 253.49 99.6598C253.501 99.8278 253.475 99.9962 253.415 100.153C253.354 100.311 253.26 100.453 253.14 100.57C252.863 100.783 252.524 100.899 252.175 100.899C251.825 100.899 251.486 100.783 251.21 100.57C251.092 100.451 251.001 100.308 250.942 100.151C250.884 99.9943 250.859 99.8269 250.87 99.6598ZM251.12 102.47H253.24V111.24H251.12V102.47Z" fill="black"/>
<path d="M262.75 104.86C262.892 105.31 262.969 105.778 262.98 106.25C262.979 106.628 262.956 107.005 262.91 107.38H257.26C257.251 107.996 257.433 108.6 257.78 109.11C257.949 109.336 258.172 109.516 258.429 109.633C258.686 109.75 258.968 109.801 259.25 109.78C259.609 109.827 259.973 109.733 260.265 109.519C260.557 109.305 260.756 108.986 260.82 108.63H263C262.885 109.45 262.454 110.192 261.8 110.7C261.076 111.239 260.192 111.517 259.29 111.49C258.744 111.499 258.204 111.391 257.703 111.174C257.203 110.957 256.755 110.635 256.39 110.23C255.571 109.303 255.142 108.096 255.19 106.86C255.132 105.619 255.563 104.406 256.39 103.48C256.758 103.08 257.207 102.764 257.707 102.552C258.207 102.34 258.747 102.237 259.29 102.25C259.829 102.223 260.367 102.325 260.859 102.548C261.352 102.77 261.784 103.107 262.12 103.53C262.409 103.931 262.623 104.382 262.75 104.86ZM259.27 103.95C259.008 103.934 258.745 103.978 258.503 104.078C258.26 104.179 258.044 104.333 257.87 104.53C257.516 104.954 257.306 105.479 257.27 106.03H261C261.041 105.661 260.979 105.288 260.82 104.952C260.661 104.616 260.411 104.332 260.1 104.13C259.838 104.02 259.553 103.975 259.27 104V103.95Z" fill="black"/>
<path d="M266.92 104C267.152 103.536 267.495 103.136 267.917 102.836C268.34 102.535 268.83 102.343 269.344 102.276C269.859 102.209 270.382 102.269 270.867 102.451C271.353 102.633 271.787 102.931 272.13 103.32C272.708 104.136 272.997 105.121 272.95 106.12V111.24H270.82V106.12C270.86 105.592 270.695 105.069 270.36 104.66C270.187 104.489 269.98 104.356 269.753 104.27C269.526 104.184 269.283 104.146 269.04 104.16C268.755 104.162 268.475 104.232 268.223 104.364C267.971 104.497 267.754 104.687 267.59 104.92C267.141 105.589 266.917 106.384 266.95 107.19V111.19H264.83V102.44H266.68L266.92 104Z" fill="black"/>
<path d="M278.73 102.25C279.237 102.245 279.74 102.34 280.21 102.53C280.8 102.775 281.313 103.174 281.695 103.687C282.077 104.199 282.313 104.804 282.38 105.44H280.24C280.154 105.08 279.971 104.751 279.71 104.49C279.594 104.371 279.456 104.276 279.303 104.211C279.15 104.146 278.986 104.111 278.82 104.11C278.522 104.1 278.225 104.155 277.95 104.27C277.706 104.375 277.49 104.536 277.32 104.74C276.885 105.347 276.67 106.084 276.71 106.83C276.658 107.544 276.864 108.254 277.29 108.83C277.455 109.04 277.667 109.209 277.908 109.325C278.148 109.441 278.412 109.501 278.68 109.5C278.893 109.518 279.109 109.494 279.313 109.429C279.517 109.364 279.707 109.259 279.87 109.12C279.998 108.976 280.097 108.809 280.161 108.627C280.224 108.445 280.251 108.252 280.24 108.06H282.38C282.391 108.503 282.313 108.944 282.15 109.357C281.987 109.769 281.742 110.145 281.43 110.46C281.066 110.8 280.638 111.064 280.171 111.236C279.704 111.407 279.207 111.484 278.71 111.46C278.164 111.47 277.623 111.363 277.123 111.146C276.622 110.928 276.174 110.606 275.81 110.2C274.973 109.281 274.528 108.072 274.57 106.83C274.54 106.209 274.634 105.589 274.847 105.005C275.06 104.421 275.387 103.886 275.81 103.43C276.188 103.041 276.643 102.736 277.146 102.533C277.648 102.33 278.188 102.233 278.73 102.25Z" fill="black"/>
<path d="M291.15 104.86C291.289 105.31 291.363 105.779 291.37 106.25C291.374 106.628 291.351 107.006 291.3 107.38H285.65C285.641 107.996 285.823 108.6 286.17 109.11C286.341 109.336 286.566 109.516 286.824 109.633C287.083 109.75 287.367 109.801 287.65 109.78C288.007 109.824 288.368 109.729 288.659 109.516C288.949 109.302 289.146 108.985 289.21 108.63H291.35C291.238 109.451 290.807 110.195 290.15 110.7C289.429 111.237 288.548 111.515 287.65 111.49C287.104 111.501 286.562 111.394 286.062 111.177C285.561 110.959 285.114 110.636 284.75 110.23C283.924 109.306 283.49 108.098 283.54 106.86C283.48 105.618 283.915 104.402 284.75 103.48C285.117 103.08 285.566 102.763 286.066 102.55C286.566 102.338 287.106 102.236 287.65 102.25C288.188 102.224 288.724 102.327 289.214 102.549C289.705 102.772 290.135 103.108 290.47 103.53C290.776 103.928 291.007 104.379 291.15 104.86ZM287.66 103.95C287.398 103.936 287.136 103.98 286.894 104.081C286.651 104.181 286.435 104.335 286.26 104.53C285.909 104.955 285.702 105.48 285.67 106.03H289.39C289.431 105.661 289.368 105.288 289.209 104.952C289.05 104.617 288.801 104.332 288.49 104.13C288.228 104.019 287.943 103.975 287.66 104V103.95Z" fill="black"/>
<path d="M129.64 16.26C122.803 16.26 116.119 18.2875 110.434 22.0861C104.749 25.8847 100.318 31.2838 97.7018 37.6006C95.0853 43.9175 94.4007 50.8684 95.7346 57.5743C97.0685 64.2802 100.361 70.44 105.196 75.2747C110.03 80.1094 116.19 83.4019 122.896 84.7358C129.602 86.0696 136.553 85.385 142.87 82.7685C149.187 80.152 154.586 75.7211 158.384 70.0361C162.183 64.3511 164.21 57.6673 164.21 50.83C164.21 41.6615 160.568 32.8685 154.085 26.3853C147.602 19.9022 138.809 16.26 129.64 16.26ZM129.64 73.58C125.141 73.58 120.742 72.2457 117.001 69.7459C113.26 67.2461 110.344 63.6931 108.622 59.5361C106.9 55.379 106.45 50.8048 107.327 46.3917C108.205 41.9786 110.372 37.925 113.554 34.7433C116.735 31.5617 120.789 29.395 125.202 28.5171C129.615 27.6393 134.189 28.0899 138.346 29.8118C142.503 31.5336 146.056 34.4496 148.556 38.1908C151.056 41.932 152.39 46.3305 152.39 50.83C152.388 56.8629 149.99 62.6479 145.724 66.9138C141.458 71.1796 135.673 73.5774 129.64 73.58Z" fill="black"/>
</svg>
