<svg width="34" height="34" viewBox="0 0 34 34" fill="none" xmlns="http://www.w3.org/2000/svg">
<path d="M16.8883 0C7.57619 0 0 7.58056 0 16.8983C0 26.2161 7.57619 33.7967 16.8883 33.7967C26.2007 33.7967 33.7769 26.2161 33.7769 16.8983C33.7769 7.58056 26.2005 0 16.8883 0ZM16.8883 32.13C8.49455 32.13 1.66571 25.2969 1.66571 16.8983C1.66571 8.49972 8.49455 1.66667 16.8883 1.66667C25.2821 1.66667 32.1112 8.49972 32.1112 16.8983C32.1112 25.2969 25.2821 32.13 16.8883 32.13Z" fill="black"/>
<path d="M16.5 8L26 13.9999L16.5 20L7 13.9999L16.5 8Z" fill="black"/>
<rect x="24" y="14" width="2" height="8" fill="black"/>
<path d="M11 19L16.5 22.5V26L11 22V19Z" fill="black"/>
<path d="M22 19V22L16.5 26V22.5L22 19Z" fill="black"/>
</svg>
