<svg width="34" height="34" viewBox="0 0 34 34" fill="none" xmlns="http://www.w3.org/2000/svg">
<path d="M16.9999 0C7.68776 0 0.111572 7.58056 0.111572 16.8983C0.111572 26.2164 7.68776 33.7967 16.9999 33.7967C26.3123 33.7967 33.8888 26.2164 33.8888 16.8983C33.8885 7.58056 26.312 0 16.9999 0ZM16.9999 32.13C8.60612 32.13 1.77728 25.2972 1.77728 16.8983C1.77728 8.49972 8.60612 1.66667 16.9999 1.66667C25.3937 1.66667 32.2231 8.49972 32.2231 16.8983C32.2228 25.2972 25.3937 32.13 16.9999 32.13Z" fill="black"/>
<path d="M12.3304 13.3179H8.42212V23.5218H12.3304V13.3179Z" fill="black"/>
<path d="M10.3374 11.69C11.4298 11.69 12.3154 10.8816 12.3154 9.88441C12.3154 8.88723 11.4298 8.07886 10.3374 8.07886C9.24497 8.07886 8.35938 8.88723 8.35938 9.88441C8.35938 10.8816 9.24497 11.69 10.3374 11.69Z" fill="black"/>
<path d="M22.1543 13.0872C21.3539 13.0872 20.6757 13.233 20.1183 13.5244C19.5614 13.816 19.0111 14.301 18.4667 14.9799V13.3177H14.8271V23.5216H18.7355V18.6213C18.7355 17.6924 18.8829 17.0491 19.1774 16.6902C19.472 16.3316 19.8556 16.1522 20.3295 16.1522C20.7585 16.1522 21.0913 16.2852 21.3284 16.551C21.5655 16.8169 21.6835 17.2699 21.6835 17.9108V23.5216H25.6112V17.0363C25.6112 15.691 25.3053 14.6966 24.6937 14.0527C24.0829 13.4088 23.2359 13.0872 22.1543 13.0872Z" fill="black"/>
</svg>
