<svg width="42" height="44" viewBox="0 0 42 44" fill="none" xmlns="http://www.w3.org/2000/svg">
<path d="M5.72205e-05 6.48499e-05V0.0474143C0.0116392 0.0352686 0.0353938 0.0116033 0.0475854 6.48499e-05H5.72205e-05ZM31.0001 1.50006C29.5001 1.00006 24.5001 0.500065 24.5001 1.00006C24.0001 2.00006 29.5 2.5 30.5 3C30.5 3.5 31.0001 5.50006 29.5001 9.00006C28.0001 13.5001 28.5001 9.00006 26.5001 9.00006C25.5001 10.0001 28.596 12.1259 26.5001 14.5001C26.1782 14.7532 25.6531 15.2814 25.4756 15.6768C25.4707 15.9829 25.8072 16.1316 25.9301 16.39C26.6065 16.1612 27.0512 15.5354 27.7193 15.2814C28.5098 13.9468 29.5817 12.7463 30.0772 11.2548C30.9623 11.3694 30.9257 12.7366 31.8098 12.946C34.7197 14.1824 38.2958 13.8122 40.9652 12.1487C41.9849 11.6357 41.8655 10.3958 41.2027 9.6603C39.7315 7.94969 37.9457 5.7927 35.5001 6.50006C33.9737 6.64533 32.2819 7.81706 31.0954 8.68475C31.7138 7.17285 32.041 5.55504 32.2483 3.94014C32.2629 2.68427 32.169 2.32656 31.0001 1.50006ZM37.5001 8.00006C39.5001 8.68475 39.5852 8.98626 40.3557 10.8727C40.1079 11.292 39.4447 11.4455 38.9731 11.5359C38.939 11.1395 39.0976 10.3844 39.0001 10.0001C38.3617 9.5463 37.3377 9.65181 37.5001 10.5001C38.137 11.1274 38.169 11.5262 38.5284 11.7671C36.6094 12.2447 34.5071 12.2306 32.6491 11.5053C32.4194 11.325 31.8206 11.2357 31.8976 10.8844C33.3631 10.7683 34.7529 11.3728 36.2023 11.2548C36.606 10.8355 36 10.5 35.5 9.5C34.0492 9.46259 33.6439 9.66691 32.1931 9.65865C32.5974 8.64569 34.0218 8.105 35.0001 8.00006C36.2064 7.87065 36.0001 7.50006 37.5001 8.00006Z" fill="#59AC74"/>
<path d="M15.2316 6.88989C10.3067 6.92147 6.48775 9.57072 3.24088 13.3145C0.202157 16.8761 -0.314091 22.8621 0.237554 27.442C0.938009 33.2574 5.02475 36.39 10.2375 37.89C12.9677 40.9821 14.7874 42.89 20.6126 43.4185C31.7375 42.3899 37.3118 35.1035 37.7375 26.549C37.9151 23.5179 37.4549 19.6138 35.2375 17.4878C33.8672 15.9026 31.4879 14.6911 29.3734 14.3899C28.2374 14.3899 26.6815 15.8817 26.0051 16.1105C25.5051 16.1105 25.2325 15.4935 25.2374 15.1874C25.0417 14.8899 25.2375 14.8899 24.7375 14.3899C24.3697 14.171 23.8492 14.1158 23.7375 13.8899C22.6993 13.6314 23.3655 13.7319 22.2746 13.8237C22.0161 13.4549 22.3599 12.8088 21.9044 12.5571C21.1612 12.75 20.4766 12.4813 19.8148 12.1796C16.5694 11.3829 15.6423 11.1767 12.4724 11.8899C12.3457 11.8928 5.91569 14.1016 6.23755 13.8237C8.47982 12.6927 11.2375 10.89 13.6844 10.39C16.2375 9.39001 20.5216 9.46589 22.7375 10.8899C23.3027 11.2377 23.7375 11.3899 24.7375 11.8899C24.9433 11.8938 25.1156 11.8055 25.7375 12.3899C26.1485 12.4714 26.6517 12.9058 26.7375 12.3899C25.7437 10.7488 25.2375 10.3899 24.053 8.88986C22.5749 7.38986 18.5214 6.8688 15.2316 6.88989ZM14.8688 13.2144C16.6571 13.2081 18.4141 14.0141 20.1917 13.5978C20.1395 14.1987 19.3236 13.9913 18.9237 14.105C17.1906 14.1273 15.5403 14.7021 13.8374 14.9241C13.6536 14.5855 12.824 14.5218 12.4724 14.2813C10.692 14.3323 11.0359 14.5976 9.54607 15.5299C8.04748 16.451 6.06211 17.8886 4.57766 18.8229C4.35763 19.0245 3.4792 19.1999 4.02475 18.697C6.72436 16.0954 10.0879 13.8747 13.8721 13.3145C14.2057 13.2446 14.5377 13.2159 14.8688 13.2144ZM22.6719 14.8546C23.1562 14.8561 23.6331 14.9945 24.074 15.1874C23.6399 15.2204 22.7802 15.1864 22.5749 14.8561C22.6071 14.8546 22.6397 14.8541 22.6719 14.8546ZM24.7374 15.8899C25.2261 16.9715 24.3979 16.2062 24.2375 15.8083C24.3477 15.6981 24.2261 15.4715 24.7374 15.8899ZM27.7374 15.8899C29.2511 15.8782 30.1761 16.3262 31.1285 17.4878C29.981 17.5267 28.8799 16.6813 27.7197 16.3884C27.3584 16.2076 26.8983 16.781 26.7374 16.3899C26.7374 16.3899 27.5808 15.8914 27.7374 15.8899ZM20.988 16.1105C22.1672 16.1212 23.3147 16.5361 24.4992 16.5798C24.4968 16.6634 24.4924 16.8295 24.4899 16.9126C20.4101 16.88 16.3308 17.5291 12.4724 18.8549C12.2735 18.8287 11.7804 19.1736 11.7063 18.939C14.524 17.3897 17.6782 16.4564 20.8734 16.1105C20.9115 16.11 20.95 16.11 20.988 16.1105ZM13.9023 16.384C14.0252 16.3879 13.892 16.6036 13.7643 16.6274C9.90343 18.2739 6.20938 20.4441 3.24098 23.4407C2.83978 23.7244 2.56483 24.1704 2.12535 24.3914C4.70567 20.3824 8.92484 17.2949 13.6844 16.4661C13.7917 16.4054 13.8613 16.383 13.9023 16.384ZM24.5689 17.891C25.9207 17.9139 27.2745 17.8765 28.6253 17.9081C28.8438 18.2564 28.6224 18.9448 29.0559 19.1868C29.2242 18.7145 29.786 18.6523 30.1805 18.8525C30.9222 19.2222 31.819 18.8914 32.5549 19.2868C33.499 19.623 34.382 20.6413 34.7375 21.5323C35.8206 24.905 35.9024 28.7788 34.2375 31.89C33.8996 31.6699 33.0011 30.7145 32.4023 30.6587C30.853 30.4357 29.4222 31.2266 27.9392 31.5278C25.6735 32.1059 23.4059 32.6782 21.1392 33.2574C16.9867 34.0031 12.8294 32.9605 8.68574 32.7273C7.50413 32.7132 6.24986 32.6525 5.11848 32.5388C5.75342 31.4112 7.41976 31.5312 8.56431 31.6444C12.8148 32.3532 17.1764 33.5226 21.481 32.5038C25.2848 31.6415 29.1032 30.7976 32.8109 29.5796C33.4298 29.4868 33.8843 28.9777 34.0637 28.4131C33.8638 28.1056 33.4522 27.7855 33.067 28.008C32.2409 28.4642 31.3806 28.8732 30.4682 29.1297C25.7983 30.51 20.9607 31.4384 16.0831 31.5395C14.2583 31.5895 12.5202 30.9842 10.7169 30.8467C10.3599 30.7694 11.0021 30.6096 11.0636 30.6198C12.152 30.4779 13.2342 30.1937 14.3368 30.2258C14.8888 30.2336 14.9766 31.3306 15.5603 30.9808C16.2591 30.6543 16.9838 30.2049 17.7875 30.3327C18.4136 30.9229 19.3407 30.3851 20.0849 30.3229C22.786 29.619 25.8461 30.1514 28.3078 28.6731C28.0518 28.0298 27.4476 27.3982 26.9712 26.858C24.2193 27.6839 21.3133 28.2042 18.4332 28.331C15.6627 27.8457 13.0176 28.9136 10.2989 29.206C10.752 28.7134 11.5298 28.5604 12.1394 28.2965C18.3244 26.2716 24.9318 26.1856 31.3718 26.2643C31.604 25.7493 31.0597 25.1178 30.5526 24.9229C27.6251 23.7429 24.3992 23.5617 21.2806 23.8002C18.2205 24.0256 15.1487 24.442 12.2267 25.4093C9.86198 26.155 7.44073 27.048 5.60176 28.7678C5.06045 29.2658 4.50027 29.7443 3.92663 30.2034C3.81388 30.252 3.83461 30.1519 3.85475 30.0781C4.62341 28.8868 5.82413 28.0862 6.93064 27.2379C9.00808 25.297 11.7 24.2059 14.3782 23.3615C18.0445 22.2829 21.8819 21.7315 25.7032 21.9769C27.3623 22.1683 28.9823 22.5978 30.6194 22.9121C31.2645 23.1341 30.1756 23.927 30.6164 24.2627C31.5601 24.1126 32.4593 24.6863 33.4088 24.4901C33.5332 24.1621 33.815 23.8672 33.8175 23.5111C32.9977 23.052 32.0326 22.8548 31.0987 22.795C30.9559 22.3694 31.3796 22.0493 31.3499 21.6285C32.1394 21.664 32.4818 20.9149 32.3345 20.2468C31.9692 20.1084 31.562 19.9578 31.1724 20.0506C31.1022 20.5403 31.1651 21.0387 31.1426 21.5323C30.4511 21.5527 30.0381 20.8852 29.3734 20.8143C25.7305 20.1001 21.9941 20.1788 18.2986 20.2177C17.2589 20.3178 12.7202 22.6716 11.7063 22.9121C11.7663 22.7071 15.5515 20.5442 15.7232 20.4485C18.102 19.5079 20.7076 19.3646 23.2274 19.1076C24.4187 18.8967 25.6647 20.0642 26.7649 19.4209C27.0965 17.9955 25.0766 18.4663 24.5689 17.891ZM14.843 19.3272C15.3623 19.3238 14.2797 19.7523 14.0281 19.8533C11.8682 20.6476 10.0692 22.109 8.19369 23.3965C6.22304 24.4221 4.22962 25.4773 2.44072 26.7613C3.33232 25.0391 5.05982 23.9265 6.64292 22.8829C9.17243 21.337 11.8799 19.9903 14.7874 19.3286C14.8079 19.3276 14.8259 19.3272 14.843 19.3272ZM22.6246 24.9016C23.3527 24.9642 24.1139 24.8175 24.8254 25.0167C23.3181 25.1659 21.6946 24.8447 20.1761 25.2548C19.5899 25.2407 18.8706 25.5681 18.34 25.3791C19.7445 25.058 21.188 24.954 22.6246 24.9016ZM32.5851 25.0663C32.2282 25.4549 32.2711 26.1477 32.2647 26.6671C32.9762 26.6802 33.7063 26.4081 34.4256 26.3348C34.9879 26.2983 34.6323 25.6327 34.4719 25.3315C33.9184 24.9759 33.2069 25.1178 32.5851 25.0663ZM5.18041 26.5223C5.26966 26.5364 5.17895 26.7502 5.094 26.8012C4.16866 27.8753 3.28662 29.0355 2.24546 29.9902C2.14608 29.5971 2.0028 29.1589 2.0979 28.7537C3.15247 28.1008 3.97296 27.1218 5.0879 26.549C5.1297 26.5267 5.15993 26.5194 5.18041 26.5223ZM11.9677 26.72C10.9387 27.167 12.9313 26.7929 11.9677 26.72ZM10.2014 27.442C10.3014 27.4454 10.4101 27.4896 10.1838 27.5387C9.54402 27.8496 8.9008 28.1673 8.23562 28.4204C8.73353 27.9297 9.47624 27.7242 10.117 27.4531C10.1356 27.4439 10.1677 27.4405 10.2014 27.442ZM33.067 32.89C33.3303 32.9745 32.491 34.4651 32.4023 34.7007C30.7375 36.39 31.1017 35.9476 29.2375 37.39C28.7396 37.5562 27.2375 38.39 26.2375 38.39C23.5954 39.3209 21.9999 38.4936 19.327 38.0136C19.863 37.8402 25.1855 37.0129 25.7375 36.89C30.068 35.7809 29.1564 34.9878 33.067 32.89ZM3.36046 32.345C2.84417 32.9046 3.95175 32.6306 3.36046 32.345ZM25.7037 33.8034C25.7847 33.8088 28.1498 34.2316 26.2375 34.39C23.8553 35.5502 22.7773 35.4139 20.1761 35.89C16.6766 36.4876 13.1186 34.9377 8.56431 33.8233C12.8167 33.7714 16.5181 35.3421 20.829 34.8849C22.4842 34.7824 24.0042 34.042 25.6394 33.8233C25.6632 33.8078 25.6852 33.802 25.7037 33.8034ZM11.0636 36.39C14.5333 36.8297 17.5871 39.304 21.1021 39.4862C21.2138 39.5246 21.4893 39.44 21.5015 39.5804C18.4414 39.646 16.1348 39.0201 13.2375 37.89C12.6997 37.6583 11.3133 36.9327 11.0636 36.39ZM24.309 40.419C24.4153 40.4204 24.4885 40.4481 24.3646 40.5356C22.5793 41.533 22.1999 41.6654 20.1761 41.8899C19.7289 41.937 18.5048 41.601 18.0752 41.482C17.1013 41.0865 15.7343 40.7418 14.7375 40.39C14.1353 40.3045 15.0498 40.3361 15.2375 40.39C18.165 41.0182 21.1528 41.1502 24.053 40.4598C24.0627 40.4423 24.2022 40.4175 24.309 40.419Z" fill="#FEAE37"/>
</svg>
