<svg width="35" height="34" viewBox="0 0 35 34" fill="none" xmlns="http://www.w3.org/2000/svg">
<path d="M17.1224 0.0842285C7.80396 0.0842285 0.222656 7.66478 0.222656 16.9826C0.222656 26.3006 7.80396 33.8809 17.1224 33.8809C26.4411 33.8809 34.0227 26.3006 34.0227 16.9826C34.0224 7.66478 26.4408 0.0842285 17.1224 0.0842285ZM17.1224 32.2142C8.72294 32.2142 1.88949 25.3815 1.88949 16.9826C1.88949 8.58395 8.72294 1.7509 17.1224 1.7509C25.5218 1.7509 32.3558 8.58395 32.3558 16.9826C32.3555 25.3815 25.5218 32.2142 17.1224 32.2142Z" fill="black"/>
<path d="M11.2891 24.5548H9.23877V10.3972H11.2891V16.7952V24.5548Z" fill="black"/>
<path d="M14.2981 10.3972H19.8367C25.109 10.3972 27.4257 14.1382 27.4257 17.4826C27.4257 21.1179 24.5632 24.568 19.8633 24.568H14.2981V10.3972ZM16.3484 22.7306H19.6104C24.2569 22.7306 25.3221 19.2275 25.3221 17.4826C25.3221 14.6405 23.498 12.2347 19.5039 12.2347H16.3484V22.7306Z" fill="black"/>
<path d="M11.6086 7.44938C11.6086 8.17643 11.0095 8.7845 10.2639 8.7845C9.51832 8.7845 8.91919 8.17643 8.91919 7.44938C8.91919 6.70911 9.51832 6.11426 10.2639 6.11426C11.0095 6.11426 11.6086 6.72233 11.6086 7.44938Z" fill="black"/>
</svg>
