<svg width="20" height="18" viewBox="0 0 20 18" fill="none" xmlns="http://www.w3.org/2000/svg">
<path d="M18.6607 3.44464L15.5 0.5C15.0547 0.183656 14.6284 0 14 0H2.7334C1.4222 0.00351494 0.358398 0.759227 0.358398 1.69069V16.3128C0.358398 17.2443 1.4222 18 2.7334 18H16.9834C18.2946 18 19.3584 17.2443 19.3584 16.3128V4.63972C19.3584 4.19332 19.1061 3.76098 18.6607 3.44464ZM17.2706 4.63972H14.2297V2L17.2706 4.63972ZM2.7334 15.7241V9V2.27483H12.5V5C12.5 5.46749 12.8419 6 13.5 6H16.9834V15.7241H2.7334ZM15.1131 11.2619C14.5094 10.8401 12.7876 10.9561 11.9266 11.0334C11.0756 10.6643 10.5066 10.1547 10.1058 9.40598C10.2988 8.84007 10.2326 7.0413 10 6.5C9.79219 5.57909 8.5959 5.37786 8.3584 6C8.14069 6.56591 8.24538 8.58348 8.61152 9.58875C8.11673 10.4288 7.37949 11.5571 6.85996 12.2039C5.87038 12.5659 4.53444 13.1248 4.33652 13.8278C4.17324 14.3831 5.62298 15.768 8.10189 12.7311C9.21022 12.471 10.4175 12.1511 11.4863 12.0246C12.4214 12.3831 13.5149 12.6221 14.2472 12.6221C15.5089 12.6221 15.6326 11.6309 15.1131 11.2619ZM5.31126 13.9965C5.56361 13.5149 6.5235 12.9596 6.81543 12.7663C5.87533 13.8313 5.31126 14.0211 5.31126 13.9965ZM9 6.5C9.36615 6.5 9.68027 8.42531 9.43783 8.73111C9.22012 8.24253 8.8763 6.5 9 6.5ZM8.14147 12.0984C8.62142 11.5044 9.0321 10.7979 9.36361 10.1757C9.77428 10.7065 10.2988 11.1318 10.8529 11.4235C9.82376 11.5747 8.92819 11.884 8.14147 12.0984ZM14.6529 11.9227C14.6529 11.9227 14.4055 12.1336 12.8074 11.6485C14.5441 11.5571 14.8311 11.8383 14.6529 11.9227Z" fill="#5DB479"/>
</svg>
