<svg width="35" height="35" viewBox="0 0 35 35" fill="none" xmlns="http://www.w3.org/2000/svg">
<path d="M8.7377 12.6719H14.166V13.7135H12.3034V19.4365H13.987L15.262 19.2375L16.2944 18.6405L16.9288 17.6792L17.1495 16.526L16.9288 15.2947L16.3566 14.4116L15.4984 13.9016L14.166 13.7135V12.6719L16.3566 12.8817L17.8188 13.5579L18.8155 14.9227L19.0579 16.3054L18.8155 17.6792L18.2208 18.7519L17.1495 19.682L15.9247 20.2639L17.0547 22.1151L19.0505 24.7081L19.8203 25.4883L20.3774 25.8846L20.9152 26.1388L21.559 26.2121V26.8757L21.1873 26.9577L20.412 26.9949L19.5702 26.9206L18.8893 26.7349L18.2208 26.3635L17.5523 25.8064L16.1411 23.9619L13.987 20.508H12.3034V24.6531L12.4025 25.2445L12.5976 25.6863L12.86 25.8945L13.1925 26.0247L13.7699 26.1158L14.3996 26.1684V26.8199H8.73218L8.73169 26.1684L9.06693 26.1158L9.44432 26.0247L9.9128 25.8945L10.2381 25.6863L10.4102 25.2445L10.5192 24.6531V14.8819L10.4355 14.3355L10.285 13.9285L10.023 13.6609L9.65497 13.4881L9.13088 13.3933L8.7377 13.3594V12.6719Z" fill="black"/>
<path d="M25.9235 9.26525L26.1203 9.64992L25.1098 10.0835L24.7853 9.57035L24.4427 9.26525L24.041 9.0572L23.8116 9.02697H23.2689L23.0454 9.0572L22.6639 9.26525L22.3102 9.57035L22.06 10.0315L21.9413 10.6242V13.4009L22.0712 13.9043L22.3685 14.3647L22.7775 14.6512L23.1429 14.7893H23.898L24.3039 14.6512L24.6287 14.4077L24.9311 14.0196L25.1098 13.4577V12.6133H23.6381V11.6228H26.2931V13.3441L26.2362 13.7338L26.0495 14.319L25.7004 14.9354L25.2214 15.3982L24.5881 15.7228L23.9548 15.8588H23.0476L22.4675 15.7228L21.8802 15.4506L21.5006 15.1068L21.2069 14.7416L20.9849 14.319L20.813 13.8033L20.72 13.1874L20.7197 10.7952L20.7841 10.2652L20.8937 9.81703L21.0754 9.37984L21.3035 8.99143L21.6076 8.66709L22.06 8.34274L22.5526 8.13052L23.2689 8.02759H24.041L24.6469 8.20176L25.1723 8.44696L25.615 8.82684L25.9235 9.26525Z" fill="black"/>
<path d="M17.5 35C7.875 35 0 27.125 0 17.5C0 7.875 7.875 0 17.5 0C27.125 0 35 7.875 35 17.5C35 27.125 27.125 35 17.5 35ZM17.5 1.75C8.8375 1.75 1.75 8.8375 1.75 17.5C1.75 26.1625 8.8375 33.25 17.5 33.25C26.1625 33.25 33.25 26.1625 33.25 17.5C33.25 8.8375 26.1625 1.75 17.5 1.75Z" fill="black"/>
</svg>
