<svg width="19" height="18" viewBox="0 0 19 18" fill="none" xmlns="http://www.w3.org/2000/svg">
<path d="M3.38571 0H13.7456C13.9941 0 14 0 14.5 0.5L18.7952 4.7883C18.929 4.89559 18.9957 5.03174 18.9957 5.16753L19 15.4987C19 16.1837 18.6181 16.8085 18.0048 17.2626L18.0005 17.2654C17.3862 17.7182 16.5405 18 15.6143 18H3.38571C2.45524 18 1.6081 17.7182 0.994286 17.2647C0.381429 16.812 0 16.1861 0 15.4987V2.50127C0 1.81316 0.380952 1.18731 0.99381 0.734199C1.60714 0.281437 2.45429 0 3.38571 0ZM5.56571 8.93703C5.14619 8.93703 4.80571 8.68549 4.80571 8.37591C4.80571 8.06598 5.14619 7.81445 5.56571 7.81445H13.4338C13.8533 7.81445 14.1938 8.06598 14.1938 8.37591C14.1938 8.68549 13.8533 8.93703 13.4338 8.93703H5.56571ZM5.56571 11.7296C5.14619 11.7296 4.80571 11.4781 4.80571 11.1681C4.80571 10.8585 5.14619 10.607 5.56571 10.607H13.0167C13.4362 10.607 13.7767 10.8585 13.7767 11.1681C13.7767 11.4781 13.4362 11.7296 13.0167 11.7296H5.56571ZM5.56571 14.5225C5.14619 14.5225 4.80571 14.271 4.80571 13.961C4.80571 13.6511 5.14619 13.3999 5.56571 13.3999H11.8848C12.3043 13.3999 12.6443 13.6511 12.6443 13.961C12.6443 14.271 12.3043 14.5225 11.8848 14.5225H5.56571ZM13.5 2V3.5C13.5 4.5 13.5 4.80281 13.7456 5C13.9336 5.151 13.9336 5.151 15.4295 5.151H16.7745L13.5 2ZM17 6.5H15.5C14.3 6.48593 13 6.5 12.5 6C12 5.5 12 4.5 12 4V3.5V2H4C3.48714 2 3 2 2.5 2.5C2 3 2 3.62112 2 4V14C2 14.3785 2 15 2.5 15.5C3 16 3.4881 16 4 16H15C15.5133 16 16 16 16.5 15.5C17 15 17 14.3399 17 13.961V6.5Z" fill="#5DB479"/>
</svg>
