<svg xmlns="http://www.w3.org/2000/svg" width="225" height="75" viewBox="0 0 225 75"><polygon points="72.09 52.52 96.8 52.52 96.8 45.34 80.44 45.34 80.44 40.51 95.05 40.51 95.05 33.86 80.44 33.86 80.44 29.2 96.58 29.2 96.58 22.07 72.09 22.07 72.09 52.52" fill="#231f20"/><path d="M111.85,48.22a5.2,5.2,0,1,0-5.16,5.23,5.16,5.16,0,0,0,5.16-5.23" fill="#231f20"/><path d="M14.27,53c7.39,0,12.3-3.7,12.3-9.92V43c0-5.7-4.34-8-11.3-9.49C11,32.6,10,32,10,30.59V30.5c0-1.13,1-1.95,3-1.95a15,15,0,0,1,8.53,3l4.22-6a19.19,19.19,0,0,0-12.53-4c-7.31,0-11.78,4.08-11.78,9.74v.09c0,6.22,5,8,11.48,9.53,4.17,1,5.18,1.65,5.18,3V44c0,1.31-1.22,2.09-3.53,2.09A15.72,15.72,0,0,1,4.7,42.38L0,48a21.38,21.38,0,0,0,14.27,5" fill="#231f20"/><path d="M38.09,37.21v-8h4c3,0,4.88,1.34,4.88,4v.09c0,2.39-1.87,4-4.83,4ZM29.65,52.52h8.44V43.81h4.22c7.53,0,13-3.78,13-11v-.08c0-6.7-5-10.66-12.62-10.66H29.65Z" fill="#231f20"/><rect x="58.36" y="22.07" width="8.43" height="30.44" fill="#231f20"/><path d="M124.13,22.09H119V34.63h3V31h1.89c3.1,0,5.1-1.75,5.1-4.49S127.07,22.09,124.13,22.09ZM122,24.83h1.92c1.3,0,2,.62,2,1.73a1.76,1.76,0,0,1-2,1.7h-2Z" fill="#ed3024"/><polygon points="138.25 22.09 138.25 26.93 133.59 26.93 133.59 22.09 130.58 22.09 130.58 34.63 133.59 34.63 133.59 29.72 138.25 29.72 138.25 34.63 141.25 34.63 141.25 22.09 138.25 22.09" fill="#ed3024"/><path d="M149.94,21.88a6.52,6.52,0,0,0-6.68,6.51,6.4,6.4,0,0,0,6.64,6.45,6.52,6.52,0,0,0,6.68-6.51A6.4,6.4,0,0,0,149.94,21.88Zm0,2.79a3.56,3.56,0,0,1,3.56,3.72,3.51,3.51,0,0,1-3.52,3.66,3.55,3.55,0,0,1-3.55-3.72A3.51,3.51,0,0,1,149.9,24.67Z" fill="#ed3024"/><polygon points="157.13 22.09 157.13 24.88 160.85 24.88 160.85 34.63 163.85 34.63 163.85 24.88 167.58 24.88 167.58 22.09 157.13 22.09" fill="#ed3024"/><path d="M174.8,21.88a6.52,6.52,0,0,0-6.68,6.51,6.41,6.41,0,0,0,6.65,6.45,6.52,6.52,0,0,0,6.68-6.51A6.41,6.41,0,0,0,174.8,21.88Zm0,2.79a3.55,3.55,0,0,1,3.55,3.72,3.51,3.51,0,0,1-3.52,3.66,3.55,3.55,0,0,1-3.55-3.72A3.51,3.51,0,0,1,174.77,24.67Z" fill="#ed3024"/><polygon points="191.68 22.09 191.68 29.32 186.22 22.16 186.17 22.09 183.46 22.09 183.46 34.63 186.43 34.63 186.43 27.16 192.08 34.56 192.13 34.63 194.65 34.63 194.65 22.09 191.68 22.09" fill="#ed3024"/><rect x="197.32" y="22.09" width="3" height="12.53" fill="#ed3024"/><path d="M212.21,30.56l-.11.1A4.27,4.27,0,0,1,209,32.05a3.48,3.48,0,0,1-3.39-3.72A3.45,3.45,0,0,1,209,24.67,4.37,4.37,0,0,1,212,26l.12.11,1.91-2.2-.1-.11A6.55,6.55,0,0,0,209,21.88a6.38,6.38,0,0,0-6.54,6.51A6.61,6.61,0,0,0,214,32.6l.1-.1Z" fill="#ed3024"/><path d="M221,27c-2.1-.54-2.52-.79-2.52-1.5,0-.55.55-.91,1.41-.91a5.56,5.56,0,0,1,3.1,1.18l.13.09,1.57-2.27-.12-.09a7.18,7.18,0,0,0-4.64-1.59c-2.61,0-4.44,1.58-4.44,3.87,0,2.62,1.81,3.29,4.17,3.89,2,.52,2.35.84,2.35,1.44s-.6,1-1.61,1a5.41,5.41,0,0,1-3.55-1.45l-.12-.1-1.79,2.14.11.1a8,8,0,0,0,5.3,2c2.87,0,4.65-1.51,4.65-4C225,28.52,223.4,27.63,221,27Z" fill="#ed3024"/><polygon points="133.83 39.97 131.4 47.89 128.77 39.94 126.24 39.94 123.61 47.89 121.22 40.08 121.19 39.97 117.97 39.97 122.22 52.48 122.25 52.59 124.82 52.59 127.47 44.91 130.13 52.59 132.69 52.59 136.98 39.97 133.83 39.97" fill="#ed3024"/><polygon points="141.51 49.8 141.51 47.54 147.28 47.54 147.28 44.84 141.51 44.84 141.51 42.67 148.07 42.67 148.07 39.97 138.52 39.97 138.52 52.5 148.16 52.5 148.16 49.8 141.51 49.8" fill="#ed3024"/><path d="M155.62,44.88c-2.1-.54-2.52-.78-2.52-1.49,0-.55.56-.91,1.42-.91a5.51,5.51,0,0,1,3.1,1.18l.12.08,1.57-2.27-.11-.09a7.27,7.27,0,0,0-4.65-1.58c-2.61,0-4.44,1.57-4.44,3.87,0,2.61,1.81,3.28,4.18,3.89,2,.51,2.35.83,2.35,1.44s-.6,1-1.61,1a5.46,5.46,0,0,1-3.56-1.45l-.12-.09-1.78,2.13.11.1a7.91,7.91,0,0,0,5.29,2c2.87,0,4.65-1.51,4.65-4C159.62,46.39,158,45.51,155.62,44.88Z" fill="#ed3024"/><polygon points="160.71 39.97 160.71 42.76 164.44 42.76 164.44 52.5 167.44 52.5 167.44 42.76 171.16 42.76 171.16 39.97 160.71 39.97" fill="#ed3024"/></svg>