<svg width="34" height="34" viewBox="0 0 34 34" fill="none" xmlns="http://www.w3.org/2000/svg">
<path d="M16.9996 0.101562C7.68752 0.101562 0.111328 7.68212 0.111328 16.9999C0.111328 26.318 7.68752 33.8982 16.9996 33.8982C26.3121 33.8982 33.8885 26.318 33.8885 16.9999C33.8882 7.68212 26.3118 0.101562 16.9996 0.101562ZM16.9996 32.2316C8.60588 32.2316 1.77703 25.3988 1.77703 16.9999C1.77703 8.60128 8.60588 1.76823 16.9996 1.76823C25.3934 1.76823 32.2228 8.60128 32.2228 16.9999C32.2225 25.3988 25.3934 32.2316 16.9996 32.2316Z" fill="black"/>
<path d="M27.5 12.1077C26.801 12.4181 26.0497 12.6271 25.2612 12.7213C26.0663 12.2392 26.6846 11.4752 26.9751 10.5648C26.2223 11.0113 25.3878 11.3359 24.4996 11.5108C23.7895 10.7532 22.7753 10.2798 21.6543 10.2798C19.1376 10.2798 17.2883 12.6279 17.8567 15.0654C14.618 14.9031 11.7458 13.3515 9.82288 10.9931C8.80163 12.745 9.29325 15.0369 11.0286 16.1975C10.3905 16.1769 9.78883 16.002 9.26396 15.7098C9.22121 17.5156 10.5156 19.205 12.3903 19.5811C11.8416 19.7299 11.2408 19.7647 10.6296 19.6476C11.1252 21.1961 12.5644 22.3226 14.2713 22.3543C12.6325 23.6392 10.5678 24.2131 8.5 23.9693C10.225 25.0752 12.2747 25.7205 14.4755 25.7205C21.7129 25.7205 25.8019 19.608 25.5549 14.1257C26.3165 13.5755 26.9775 12.8891 27.5 12.1077Z" fill="black"/>
</svg>
